<svg width="512" height="512" viewBox="0 0 512 512" fill="none" xmlns="http://www.w3.org/2000/svg">
<rect width="512" height="512" fill="white"/>
<g clip-path="url(#clip0_311_8)">
<path d="M360.031 120.841C398.324 152.195 441.757 178.666 452.294 214.646C462.574 250.369 440.215 295.601 414.258 336.207C388.044 377.07 358.232 413.564 316.855 436.437C275.735 459.053 222.793 468.048 185.528 448.516C148.006 428.984 126.161 380.668 102.003 335.436C77.5884 290.204 51.1174 247.799 56.7714 210.277C62.4254 173.012 100.204 140.373 138.497 108.762C176.79 77.4081 215.34 47.3391 251.577 50.4231C287.814 53.2501 321.481 89.4871 360.031 120.841Z" fill="#DDD6FE"/>
</g>
<path d="M269.866 217.397C257.176 217.65 247.025 222.215 239.411 229.062C239.411 206.999 239.411 187.218 239.411 182.399C239.411 167.944 231.797 161.097 217.331 165.155C214.539 166.169 199.565 170.48 191.951 173.016C184.084 175.552 180.531 178.849 180.023 184.175C179.769 188.74 181.546 192.036 188.145 201.166C192.713 207.506 192.967 215.875 192.967 233.627V286.63C192.967 304.382 191.951 333.039 193.728 338.872C195.758 345.212 201.342 345.973 206.164 345.973C215.3 345.973 226.975 332.025 231.543 325.431C239.918 336.589 252.354 345.212 269.866 345.973C306.412 346.987 329 319.598 329 281.558C329 243.518 306.412 216.129 269.866 217.397ZM258.445 320.359C242.71 320.359 234.843 303.875 234.843 281.558C234.843 259.241 242.71 243.01 258.445 243.01C273.927 243.01 281.794 259.241 281.794 281.558C281.794 303.875 273.927 320.359 258.445 320.359Z" fill="#6D28D9"/>
<defs>
<clipPath id="clip0_311_8">
<rect width="400" height="410" fill="white" transform="translate(55 50)"/>
</clipPath>
</defs>
</svg>
